# xmcd
#
# Track frame offsets: 
#        150
#        15370
#        30969
#        46794
#        63256
#        79844
#        95761
#        112636
#        129062
#        145587
#        160817
#        179623
#        194476
#        211923
#
# Disc length: 3022 seconds
#
# Revision: 2
# Processed by: cddbd v1.5.2PL0 Copyright (c) Steve Scherf et al.
# Submitted via: ExactAudioCopyFreeDBPlugin 1.0
#
DISCID=a50bcc0e
DTITLE=Muenchener Freiheit - Alle Jahre, Alle Hits CD3
DYEAR=2010
DGENRE=Pop-Folk
TTITLE0=Wieder Und Wieder
TTITLE1=1000 X Du (Version 2003)
TTITLE2=Geile Zeit
TTITLE3=Ein Engel Wie Du
TTITLE4=Leuchtturm
TTITLE5=Du Bist Das Leben
TTITLE6=Kleine Wunder
TTITLE7=Nichts Ist Wie Du
TTITLE8=Bis Ans Ende Der Welt
TTITLE9=Reif Fuer Die Insel
TTITLE10=Sie Liebt Dich Wie Du Bist
TTITLE11=Ein Augenblick In Rot
TTITLE12=Unterwegs In Die Freiheit
TTITLE13=Aus Der Nummer Raus
EXTD=
EXTT0=
EXTT1=
EXTT2=
EXTT3=
EXTT4=
EXTT5=
EXTT6=
EXTT7=
EXTT8=
EXTT9=
EXTT10=
EXTT11=
EXTT12=
EXTT13=
PLAYORDER=
